<?xml version="1.0" encoding="UTF-8"?>
<svg width="24px" height="17px" viewBox="0 0 24 17" version="1.1" xmlns="http://www.w3.org/2000/svg" xmlns:xlink="http://www.w3.org/1999/xlink">
    <!-- Generator: Sketch 63.1 (92452) - https://sketch.com -->
    <title>Shape</title>
    <desc>Created with Sketch.</desc>
    <g id="Page-1" stroke="none" stroke-width="1" fill="none" fill-rule="evenodd">
        <g id="Elevate-Mobile-Menu" transform="translate(-54.000000, -663.000000)" fill="#9FD3BD" fill-rule="nonzero">
            <path d="M56.4391306,663.986886 C55.101918,663.986886 54.0000001,665.088831 54.0000001,666.426016 L54.0000001,677.266604 C54.0000001,678.60379 55.101918,679.705735 56.4391306,679.705735 L74.8681155,679.705735 C76.2053281,679.705735 77.307246,678.60379 77.307246,677.266604 L77.307246,666.426016 C77.307246,665.088831 76.2053281,663.986886 74.8681155,663.986886 L56.4391306,663.986886 Z M56.6423914,665.612973 L74.6648552,665.612973 L66.1871967,672.998126 C65.8582393,673.284317 65.4667588,673.284588 65.1370155,672.998126 L56.6423914,665.612973 Z M55.6260871,666.883353 L61.3766894,671.880191 L55.6260871,677.249666 L55.6260871,666.883353 Z M75.681159,666.891755 L75.681159,677.258067 L69.9475227,671.88011 L75.681159,666.891755 Z M68.710992,672.94723 L74.1736414,678.079566 L57.1251225,678.079566 L62.6131659,672.955712 L64.0698688,674.21761 C64.9763852,675.00507 66.3478269,675.006343 67.2542891,674.21761 L68.710992,672.94723 L68.710992,672.94723 Z" id="Shape"></path>
        </g>
    </g>
</svg>