<?xml version="1.0" encoding="UTF-8"?>
<svg width="52px" height="34px" viewBox="0 0 52 34" version="1.1" xmlns="http://www.w3.org/2000/svg" xmlns:xlink="http://www.w3.org/1999/xlink">
    <!-- Generator: Sketch 63.1 (92452) - https://sketch.com -->
    <title>noun_Mountains_1759823 Copy 5</title>
    <desc>Created with Sketch.</desc>
    <g id="Page-1" stroke="none" stroke-width="1" fill="none" fill-rule="evenodd">
        <g id="Elevate-Design" transform="translate(-694.000000, -3322.000000)" fill="#E84C5B" fill-rule="nonzero">
            <g id="Speed-to-value" transform="translate(-30.813370, 3249.540345)">
                <g id="noun_Mountains_1759823-Copy-5" transform="translate(724.313370, 72.000000)">
                    <path d="M52.205998,30.9899552 L37.7727331,6.8667519 C37.5016859,6.39241925 36.9595914,6.05361021 36.4174969,6.05361021 C35.8754025,6.05361021 35.333308,6.25689563 34.994499,6.73122828 L29.3025072,14.3883125 L21.4421376,1.37804553 C21.1033286,0.835951074 20.5612341,0.564903846 20.0191397,0.564903846 C19.4770452,0.564903846 18.8671889,0.903712881 18.5961417,1.37804553 L0.842548283,30.9899552 C0.503739248,31.5320496 0.503739248,32.1419059 0.842548283,32.6840004 C1.11359551,33.2260948 1.72345177,33.5649038 2.33330804,33.5649038 L50.783,33.5649038 C51.3928563,33.5649038 51.9349507,33.2260948 52.2737598,32.6840004 C52.544807,32.1419059 52.544807,31.5320496 52.205998,30.9899552 Z M5.31482754,30.1768135 L20.0191397,5.57927756 L27.5407002,18.1152119 L27.5407002,18.1152119 L34.7912136,30.1768135 L5.31482754,30.1768135 Z M38.7213984,30.1768135 L31.132076,17.5731174 L31.132076,17.5731174 L36.2142115,10.7969367 L47.8014805,30.1768135 L38.7213984,30.1768135 L38.7213984,30.1768135 Z" id="Shape"></path>
                </g>
            </g>
        </g>
    </g>
</svg>