<?xml version="1.0" encoding="UTF-8"?>
<svg width="18px" height="18px" viewBox="0 0 18 18" version="1.1" xmlns="http://www.w3.org/2000/svg" xmlns:xlink="http://www.w3.org/1999/xlink">
    <!-- Generator: Sketch 63.1 (92452) - https://sketch.com -->
    <title>Search</title>
    <desc>Created with Sketch.</desc>
    <g id="Page-1" stroke="none" stroke-width="1" fill="none" fill-rule="evenodd">
        <g id="Article-Landing" transform="translate(-1014.000000, -573.000000)" fill="#036665" fill-rule="nonzero">
            <g id="Blog-filters" transform="translate(361.500000, 562.711252)">
                <g id="Search" transform="translate(353.192529, 0.000000)">
                    <g transform="translate(299.881629, 10.800000)" id="Group">
                        <g>
                            <path d="M12.1730855,10.985146 L16.3703701,15.1824306 C16.6969007,15.5089613 16.6979638,16.0373089 16.3676364,16.3676364 C16.039596,16.6956768 15.5030158,16.6909552 15.1824306,16.3703701 L10.985146,12.1730855 C8.34886525,14.2247836 4.5355329,14.039048 2.11236365,11.6158788 C-0.511959595,8.99155555 -0.511959595,4.73668689 2.11236365,2.11236365 C4.73668689,-0.511959595 8.99155555,-0.511959595 11.6158788,2.11236365 C14.039048,4.5355329 14.2247836,8.34886525 12.1730855,10.985146 L12.1730855,10.985146 Z M10.4279394,10.4279394 C12.3961818,8.45969695 12.3961818,5.26854547 10.4279394,3.30030304 C8.45969695,1.33206061 5.26854547,1.33206061 3.30030304,3.30030304 C1.33206061,5.26854547 1.33206061,8.45969695 3.30030304,10.4279394 C5.26854547,12.3961818 8.45969695,12.3961818 10.4279394,10.4279394 Z" id="Shape"></path>
                        </g>
                    </g>
                </g>
            </g>
        </g>
    </g>
</svg>